<svg width="733" height="426" viewBox="0 0 733 426" fill="none" xmlns="http://www.w3.org/2000/svg">
<rect width="733" height="426" fill="white"/>
<g clip-path="url(#clip0)">
<path d="M260.2 208.09C274.31 161.37 323.4 110.08 381.8 110.08C451.21 110.08 506.48 181.52 506.48 232.65C506.48 283.78 451.21 300.22 381.8 300.22C312.39 300.22 256.13 284.77 256.13 233.65C256.13 225.54 257.54 216.9 260.2 208.09Z" fill="#F7C894"/>
<path d="M329.77 177.66L275.89 177.74C275.89 177.74 261.7 102.39 268.28 95.82C274.86 89.25 337.69 124.78 337.69 124.78L329.77 177.66Z" fill="#F7C894"/>
<path d="M433.83 177.66L487.71 177.74C487.71 177.74 501.9 102.39 495.32 95.82C488.74 89.25 425.91 124.78 425.91 124.78L433.83 177.66Z" fill="#F7C894"/>
<path d="M506.41 222.2C503.16 181.97 470.86 206.68 423.59 222.07C414.73 209.24 396.44 200.35 381.36 200.35C365.46 200.35 346.01 210.23 337.79 224.18C297.46 210.04 264.8 182.99 257.2 218.52C255.27 227.52 254.58 239.25 255.26 247.33C258.86 290.28 313.18 302.63 388.83 302.01C458.55 301.45 511.51 285.31 506.41 222.2Z" fill="#F7E2CD"/>
<path d="M403.12 224.54C403.12 231.34 392.24 241.21 381.51 241.21C370.78 241.21 359.9 231.34 359.9 224.54C359.9 217.74 370.78 212.23 381.51 212.23C392.24 212.23 403.12 217.74 403.12 224.54Z" fill="black"/>
<path d="M348.611 161.717C349.543 158.113 345.782 154.023 340.21 152.582C334.638 151.141 329.365 152.894 328.433 156.498C327.501 160.102 331.263 164.192 336.834 165.633C342.406 167.074 347.679 165.321 348.611 161.717Z" fill="#F7E2CD"/>
<path d="M424.929 165.633C430.501 164.192 434.262 160.102 433.33 156.498C432.398 152.894 427.126 151.14 421.554 152.581C415.982 154.022 412.221 158.112 413.153 161.716C414.085 165.32 419.358 167.074 424.929 165.633Z" fill="#F7E2CD"/>
<path d="M284.66 152.95C279.04 152.38 276.59 118.33 281.21 114.56C285.83 110.79 317.4 123.56 316.72 130.17C316.04 136.78 290.28 153.52 284.66 152.95Z" fill="#F7E2CD"/>
<path d="M477.33 152.95C482.95 152.38 485.4 118.33 480.78 114.56C476.16 110.79 444.59 123.56 445.27 130.17C445.94 136.79 471.71 153.52 477.33 152.95Z" fill="#F7E2CD"/>
<path d="M381.51 233.98V252.91L379.7 255.37L363.74 263.85" stroke="black" stroke-width="8" stroke-miterlimit="10" stroke-linecap="round" stroke-linejoin="round"/>
<path d="M383.08 255.26L399.73 264.33" stroke="black" stroke-width="8" stroke-miterlimit="10" stroke-linecap="round" stroke-linejoin="round"/>
<path d="M335.978 195.608C336.164 186.403 331.512 178.844 325.587 178.725C319.662 178.605 314.708 185.97 314.522 195.174C314.336 204.379 318.989 211.938 324.914 212.058C330.838 212.178 335.792 204.813 335.978 195.608Z" fill="black"/>
<path d="M449.702 195.894C449.888 186.689 445.236 179.13 439.311 179.011C433.386 178.891 428.432 186.256 428.246 195.461C428.06 204.665 432.713 212.224 438.637 212.344C444.562 212.464 449.516 205.099 449.702 195.894Z" fill="black"/>
</g>
<defs>
<clipPath id="clip0">
<rect width="251.75" height="207.04" fill="white" transform="translate(255 95)"/>
</clipPath>
</defs>
</svg>
