<svg width="96" height="84" viewBox="0 0 96 84" fill="none" xmlns="http://www.w3.org/2000/svg">
<path d="M60.7989 44.6254C56.9552 46.5828 56.0376 52.4864 58.7494 57.8115C61.4612 63.1366 66.7755 65.8666 70.6192 63.9092C74.4629 61.9518 75.3805 56.0482 72.6687 50.7231C69.9569 45.398 64.6426 42.668 60.7989 44.6254Z" fill="#AF9C97"/>
<path d="M68.6873 24.3264C65.3915 27.1091 65.845 33.0664 69.7002 37.6324C73.5553 42.1984 79.3524 43.644 82.6482 40.8613C85.944 38.0786 85.4905 32.1213 81.6353 27.5553C77.7801 22.9893 71.9831 21.5436 68.6873 24.3264Z" fill="#AF9C97"/>
<path d="M35.1778 64.5402C36.4798 70.3724 40.948 74.3385 45.1578 73.3987C49.3675 72.4589 51.7247 66.9691 50.4227 61.1368C49.1207 55.3046 44.6525 51.3385 40.4427 52.2784C36.233 53.2182 33.8758 58.708 35.1778 64.5402Z" fill="#AF9C97"/>
<path d="M13.2628 53.1262C13.3475 59.1015 16.9126 63.8958 21.2256 63.8347C25.5386 63.7736 28.9663 58.8801 28.8816 52.9048C28.7969 46.9296 25.2319 42.1353 20.9189 42.1964C16.6059 42.2575 13.1781 47.151 13.2628 53.1262Z" fill="#AF9C97"/>
<path d="M33.7955 44.2459C34.1779 44.4979 34.5791 44.743 34.9862 44.9752C35.2938 45.1698 35.6177 45.3797 35.9323 45.593C36.3277 45.851 36.6775 45.9871 36.9853 46.0108C41.1112 47.9383 45.7544 48.8505 48.7331 47.7371C52.5362 46.3157 56.1697 40.4419 57.6317 34.8992C57.6282 34.8898 57.6376 34.8863 57.6341 34.877C61.9985 18.7909 68.5346 24.739 64.7675 14.66C62.5829 8.81494 56.6983 7.52342 50.8626 9.70456C46.9565 11.1645 44.7508 16.0884 38.2875 18.5041C31.8242 20.9198 26.9605 19.3321 23.9162 20.4699C18.0711 22.6546 14.4855 27.4856 16.6702 33.3307C20.2377 42.8758 24.4245 35.1404 33.7955 44.2459Z" fill="#AF9C97"/>
</svg>
