<svg width="618" height="726" viewBox="0 0 618 726" fill="none" xmlns="http://www.w3.org/2000/svg">
<g clip-path="url(#clip0)">
<path d="M429.073 49.3677H42.6455V315.421H429.073V49.3677Z" fill="#F2F6F9"/>
<path d="M236.36 253.466C276.304 253.466 308.685 221.063 308.685 181.09C308.685 141.118 276.304 108.715 236.36 108.715C196.416 108.715 164.035 141.118 164.035 181.09C164.035 221.063 196.416 253.466 236.36 253.466Z" fill="#FF0000"/>
<path d="M51.401 721.538H33.8796L39.9857 11.7142H44.9933L51.401 721.538Z" fill="#E8E8E8"/>
<path d="M0 726C0 681.697 138.34 634.991 308.987 634.991C479.634 634.991 617.974 681.697 617.974 726H0Z" fill="#71AA81"/>
<path d="M382.949 517.817L410.216 537.075C416.839 534.51 424.367 537.829 426.93 544.468L431.679 557.249C434.242 563.887 434.436 569.222 427.813 571.787L413.479 577.336C406.846 579.901 399.329 587.359 396.766 580.731L388.495 559.35C369.595 521.524 376.315 520.382 382.949 517.817Z" fill="#F7C894"/>
<path d="M394.009 646.134C387.052 644.669 400.298 622.523 401.924 614.818L395.172 575.558C397.11 559.35 421.265 566.484 428.222 567.939L395.818 580.591C402.775 582.057 417.345 492.33 438.237 584.675L433.025 609.515C414.072 667.903 408.687 644.733 403.733 647.719" fill="#F7C894"/>
<path d="M368.141 649.82C368.141 639.119 377.683 630.444 389.453 630.444C401.224 630.444 410.765 639.119 410.765 649.82" fill="#F7E2CD"/>
<path d="M319.939 534.682C319.939 546.397 326.982 563.812 276.303 555.902C218.656 546.892 211.117 524.833 211.117 513.118C211.117 501.404 252.212 513.474 276.303 513.474C300.393 513.474 319.939 522.968 319.939 534.682Z" fill="#F7E2CD"/>
<path d="M534.481 513.83C534.481 526.945 527.125 546.461 521.106 555.869C481.949 616.984 484.975 571.776 453.217 571.776C453.217 571.776 402.764 580.009 437.57 517.817C461.919 474.301 410.119 423.522 453.217 423.522C496.315 423.522 534.481 463.956 534.481 513.83Z" fill="#F7C894"/>
<path d="M222.134 655.823L205.937 506.146C205.937 499.454 211.785 491.382 218.892 491.382H246.483C253.591 491.382 259.406 496.856 259.406 503.549L249.703 659.056L222.134 655.823Z" fill="#F7C894"/>
<path d="M437.43 489.335C437.43 536.385 385.48 533.152 325.582 536.989C208.124 544.532 215.167 569.847 206.121 520.824C197.581 474.56 144.284 316.747 314.802 435.635C364.049 469.969 437.43 442.284 437.43 489.335Z" fill="#F7C894"/>
<path d="M514.278 463.449C514.278 510.5 504.909 534.607 445.539 543.466C423.301 546.785 402.979 549.307 384.51 551.117C226.205 566.646 204.354 530.006 282.969 494.938C325.916 475.778 221.133 290.861 391.65 409.749C440.908 444.083 514.278 416.398 514.278 463.449Z" fill="#F7C894"/>
<path d="M43.7009 30.4548C52.1048 30.4548 58.9176 23.6372 58.9176 15.2274C58.9176 6.81753 52.1048 0 43.7009 0C35.2969 0 28.4841 6.81753 28.4841 15.2274C28.4841 23.6372 35.2969 30.4548 43.7009 30.4548Z" fill="#E8E8E8"/>
<path d="M171.885 368.959C182.364 334.216 218.85 296.077 262.249 296.077C313.822 296.077 354.895 349.206 354.895 387.215C354.895 425.224 313.822 437.456 262.249 437.456C210.676 437.456 168.859 425.968 168.859 387.959C168.859 381.945 169.915 375.512 171.885 368.959Z" fill="#F7C894"/>
<path d="M223.588 346.339L183.548 346.393C183.548 346.393 173.005 290.366 177.895 285.473C182.784 280.58 229.479 307.005 229.479 307.005L223.588 346.339Z" fill="#F7C894"/>
<path d="M300.91 346.339L340.949 346.393C340.949 346.393 351.492 290.366 346.603 285.473C341.714 280.58 295.019 307.005 295.019 307.005L300.91 346.339Z" fill="#F7C894"/>
<path d="M354.842 379.456C352.418 349.54 328.425 367.914 293.296 379.359C286.716 369.822 273.126 363.205 261.915 363.205C250.101 363.205 235.649 370.554 229.532 380.922C199.573 370.414 175.299 350.294 169.656 376.719C168.224 383.411 167.707 392.14 168.213 398.143C170.895 430.085 211.246 439.266 267.461 438.803C319.282 438.393 358.632 426.388 354.842 379.456Z" fill="#F7E2CD"/>
<path d="M278.09 381.191C278.09 386.245 270.003 393.584 262.034 393.584C254.064 393.584 245.977 386.245 245.977 381.191C245.977 376.137 254.064 372.042 262.034 372.042C270.003 372.042 278.09 376.137 278.09 381.191Z" fill="black"/>
<path d="M208.188 359.713C208.888 352.557 215.533 353.721 222.683 354.422C229.834 355.122 234.777 355.101 234.077 362.256C233.377 369.412 227.077 364.649 219.937 363.948C212.786 363.237 207.488 366.869 208.188 359.713Z" fill="black"/>
<path d="M316.245 359.713C315.545 352.557 308.901 353.721 301.75 354.422C294.599 355.122 289.656 355.101 290.356 362.256C291.056 369.412 297.356 364.649 304.496 363.948C311.647 363.237 316.945 366.869 316.245 359.713Z" fill="black"/>
<path d="M237.606 334.483C238.299 331.803 235.504 328.762 231.363 327.691C227.223 326.619 223.305 327.923 222.613 330.602C221.92 333.282 224.715 336.323 228.856 337.394C232.996 338.466 236.914 337.162 237.606 334.483Z" fill="#F7E2CD"/>
<path d="M294.32 337.4C298.461 336.328 301.256 333.287 300.563 330.608C299.871 327.928 295.953 326.624 291.812 327.696C287.672 328.768 284.877 331.808 285.57 334.488C286.262 337.168 290.18 338.471 294.32 337.4Z" fill="#F7E2CD"/>
<path d="M190.064 327.965C185.885 327.534 184.065 302.22 187.501 299.418C190.936 296.616 214.391 306.11 213.896 311.024C213.39 315.938 194.231 328.385 190.064 327.965Z" fill="#F7E2CD"/>
<path d="M333.228 327.965C337.406 327.534 339.226 302.22 335.791 299.418C332.356 296.616 308.901 306.11 309.396 311.024C309.902 315.938 329.06 328.385 333.228 327.965Z" fill="#F7E2CD"/>
<path d="M262.034 388.217V402.302L260.687 404.124L248.82 410.428" stroke="black" stroke-width="8" stroke-miterlimit="10" stroke-linecap="round" stroke-linejoin="round"/>
<path d="M312.261 497.158C299.833 548.789 316.482 554.996 266.277 552.248C210.611 549.199 224.966 533.174 218.128 497.158C210.364 456.283 173.016 430.235 232.989 419.232C378.954 392.442 320.887 461.326 312.261 497.158Z" fill="#F7E2CD"/>
<path d="M330.105 429.427C330.105 433.899 287.19 455.808 263.951 455.808C245.363 455.808 198.819 436.443 201.404 432.789C201.565 432.563 201.878 432.272 201.921 431.992C202.093 431.011 232.182 441.281 266.104 439.611C304.658 437.714 325.119 429.395 329.427 427.951C329.922 427.778 330.105 428.931 330.105 429.427Z" fill="#C6C6C6" fill-opacity="0.4"/>
<path d="M317.484 548.994C324.57 562.335 316.374 556.376 292.069 553.186C204.354 541.666 274.073 542.894 273.427 532.969C272.706 521.707 283.938 528.389 285.941 515.457C300.813 419.513 311.948 538.584 317.484 548.994Z" fill="#F7E2CD"/>
<path d="M308.987 660.133L315.89 496.264C315.89 488.936 337.331 480.099 346.496 480.099H340.379C349.543 480.099 377.586 486.091 376.197 493.419L343.146 663.679L308.987 660.133Z" fill="#F7C894"/>
<path d="M486.774 426.873C478.482 448.707 455.996 454.634 434.178 446.346C412.359 438.048 399.48 418.672 407.772 396.849C416.064 375.016 440.467 364.045 462.274 372.343C484.092 380.62 495.055 405.04 486.774 426.873Z" fill="#F7E2CD"/>
<path d="M483.715 426.033C476.177 396.009 446.056 366.578 466.356 374.283C493.354 384.553 517.929 421.754 515.01 455.938C515.01 455.938 500.644 441.378 492.331 437.025C484.017 432.671 456.9 427.434 456.9 427.434L483.715 426.033Z" fill="#F7E2CD"/>
<path d="M364.405 552.776C365.503 547.28 366.741 541.827 367.904 536.342L369.746 528.152L371.663 519.983C372.309 517.267 372.858 514.519 373.44 511.771C374.032 509.034 374.775 506.34 375.68 503.7C376.595 501.049 377.586 498.43 378.717 495.844C379.837 493.257 381.054 490.692 382.55 488.214L383.067 488.365C383.057 491.264 382.755 494.087 382.367 496.878C381.99 499.669 381.474 502.428 380.87 505.165C380.267 507.892 379.503 510.586 378.577 513.226C377.651 515.867 376.681 518.496 375.82 521.158L373.203 529.133L370.511 537.086C368.648 542.366 366.871 547.668 364.943 552.927L364.405 552.776Z" fill="#DDA166"/>
<path d="M503.832 575.386C492.794 598.696 496.907 597.101 479.914 597.101C462.92 597.101 424.421 576.765 426.725 551.074C428.933 526.428 456.06 539.467 473.054 539.467C490.048 539.467 579.334 415.902 503.832 575.386Z" fill="#F7C894"/>
<path d="M499.955 596.734L485.621 602.284C478.988 604.849 471.471 612.307 468.908 605.679L460.637 584.298C441.737 546.472 448.457 545.33 455.091 542.765L482.358 562.023C488.992 559.458 496.509 562.777 499.072 569.416L503.821 582.197C506.395 588.824 506.589 594.169 499.955 596.734Z" fill="#F7C894"/>
<path d="M474.777 661.89L465.063 660.295C458.107 658.829 471.353 636.683 472.979 628.978L466.183 592.553C467.799 584.848 492.32 580.645 499.277 582.1L466.873 594.751C473.829 596.217 488.4 506.491 509.292 598.836L504.08 623.676C485.115 682.074 479.731 658.905 474.777 661.89Z" fill="#F7C894"/>
<path d="M207.014 661.092C207.014 650.391 216.556 641.716 228.326 641.716C240.097 641.716 249.638 650.391 249.638 661.092H207.014Z" fill="#F7E2CD"/>
<path d="M300.899 663.442C300.899 652.741 310.441 644.065 322.211 644.065C333.982 644.065 343.523 652.741 343.523 663.442H300.899Z" fill="#F7E2CD"/>
<path d="M441.124 663.991C441.124 653.29 450.665 644.615 462.436 644.615C474.206 644.615 483.748 653.29 483.748 663.991H441.124Z" fill="#F7E2CD"/>
<path d="M441.091 485.132C438.054 490.013 435.47 495.165 433.37 500.477L431.862 504.476L430.538 508.528C430.075 509.864 429.762 511.254 429.364 512.612C429.181 513.291 428.965 513.97 428.815 514.66L428.373 516.729C427.705 519.477 427.458 522.289 427.113 525.07C426.995 526.46 426.908 527.861 426.747 529.24L426.488 531.32L426.327 533.4C425.552 538.972 425.573 544.543 424.916 550.481L424.388 550.578C423.796 549.209 423.333 547.808 422.859 546.386L422.213 544.231C422.009 543.509 421.933 542.776 421.782 542.043C421.513 540.577 421.309 539.101 421.104 537.614C420.975 536.127 420.975 534.639 420.942 533.141L420.953 530.9C420.996 530.156 421.104 529.413 421.179 528.669C421.362 527.193 421.567 525.706 421.858 524.24C422.601 521.341 423.29 518.453 424.216 515.64L424.862 513.517C425.078 512.817 425.358 512.127 425.605 511.427C426.133 510.047 426.585 508.646 427.178 507.299L428.965 503.269L430.936 499.335L433.111 495.52C433.898 494.281 434.63 493.02 435.448 491.813C437.042 489.367 438.765 487.017 440.671 484.808L441.091 485.132Z" fill="#DDA166"/>
<path fill-rule="evenodd" clip-rule="evenodd" d="M311.451 209.735C293.155 213.958 274.903 202.535 270.681 184.216C266.46 165.895 277.875 147.64 296.182 143.415L296.185 143.426C314.481 139.203 332.733 150.626 336.954 168.945C341.176 187.255 329.76 205.521 311.453 209.746L311.451 209.735Z" fill="#F7C894"/>
<path d="M263.897 149.289C265.307 147.036 285.09 152.899 285.09 152.899L286.275 168.148L271.263 171.629C271.273 171.639 262.486 151.541 263.897 149.289Z" fill="#F7C894"/>
<path d="M315.276 161.477L330.288 158.039C330.288 158.039 329.405 136.12 327.144 134.708C324.893 133.296 309.665 147.241 309.665 147.241L315.276 161.477Z" fill="#F7C894"/>
<path d="M292.184 166.98C292.211 165.95 290.942 165.082 289.348 165.039C287.755 164.997 286.441 165.797 286.414 166.826C286.386 167.855 287.656 168.724 289.249 168.766C290.843 168.809 292.156 168.009 292.184 166.98Z" fill="#F7E2CD"/>
<path d="M313.007 163.263C314.421 162.527 315.182 161.19 314.708 160.277C314.233 159.363 312.702 159.219 311.288 159.955C309.873 160.691 309.112 162.028 309.587 162.942C310.061 163.855 311.593 163.999 313.007 163.263Z" fill="#F7E2CD"/>
<path d="M268.7 153.685C269.744 152.338 279.361 153.869 279.598 155.755C279.835 157.641 273.729 163.966 272.124 164.16C270.52 164.354 267.655 155.033 268.7 153.685Z" fill="#F7E2CD"/>
<path d="M325.808 151.789C327.337 151.272 325.83 141.616 324.3 140.861C322.771 140.107 314.791 145.7 315.405 147.5C316.019 149.299 324.279 152.306 325.808 151.789Z" fill="#F7E2CD"/>
<path d="M311.356 209.681C293.005 213.992 279.436 203.42 275.118 194.841C270.638 185.951 291.336 190.046 306.058 186.651C320.779 183.257 337.988 169.387 337.74 179.054C337.471 189.593 329.491 205.413 311.356 209.681Z" fill="#F7E2CD"/>
<path d="M320.413 183.041C321.285 186.834 312.519 189.205 306.618 190.574C300.716 191.932 292.844 193.408 291.972 189.604C291.099 185.8 297.798 177.189 303.699 175.832C309.601 174.474 319.54 179.248 320.413 183.041Z" fill="#F7E2CD"/>
<path d="M310.785 180.53C311.205 182.362 308.89 185.703 305.993 186.371C303.096 187.039 299.553 185.046 299.122 183.213C298.691 181.381 301.287 179.215 304.184 178.547C307.081 177.879 310.365 178.687 310.785 180.53Z" fill="black"/>
<path d="M305.541 184.42L306.725 189.529L306.381 190.304L302.601 193.591" stroke="black" stroke-width="4" stroke-miterlimit="10" stroke-linecap="round" stroke-linejoin="round"/>
<path d="M307.285 190.067L312.347 191.479" stroke="black" stroke-width="4" stroke-miterlimit="10" stroke-linecap="round" stroke-linejoin="round"/>
<path d="M289.347 181.835C290.906 181.475 291.718 179.223 291.161 176.804C290.604 174.386 288.889 172.717 287.33 173.076C285.77 173.436 284.958 175.688 285.515 178.106C286.072 180.525 287.788 182.194 289.347 181.835Z" fill="black"/>
<path d="M319.234 174.948C320.793 174.588 321.605 172.336 321.048 169.918C320.491 167.499 318.775 165.83 317.216 166.189C315.657 166.549 314.845 168.801 315.402 171.22C315.959 173.638 317.674 175.308 319.234 174.948Z" fill="black"/>
<path d="M263.197 404.037L275.57 410.784" stroke="black" stroke-width="8" stroke-miterlimit="10" stroke-linecap="round" stroke-linejoin="round"/>
<path d="M424.378 546.785C424.378 546.785 428.901 558.122 430.645 563.456C431.679 566.614 425.358 547.507 384.51 551.128C343.674 554.738 424.378 546.785 424.378 546.785Z" fill="#DDA166" stroke="#DDA166" stroke-width="0.25" stroke-miterlimit="10"/>
</g>
<defs>
<clipPath id="clip0">
<rect width="617.974" height="726" fill="white"/>
</clipPath>
</defs>
</svg>
