<svg width="280" height="788" viewBox="0 0 280 788" fill="none" xmlns="http://www.w3.org/2000/svg">
<path d="M56.916 788L36.7073 783.973L200.2 0L205.974 1.15225L56.916 788Z" fill="#E8E8E8"/>
<path d="M172.939 247.101C224.988 247.101 267.183 204.906 267.183 152.857C267.183 100.807 224.988 58.6128 172.939 58.6128C120.889 58.6128 78.6948 100.807 78.6948 152.857C78.6948 204.906 120.889 247.101 172.939 247.101Z" fill="#3F2920"/>
<path d="M133.585 444.68C185.635 444.68 227.829 402.486 227.829 350.436C227.829 298.387 185.635 256.192 133.585 256.192C81.5355 256.192 39.3411 298.387 39.3411 350.436C39.3411 402.486 81.5355 444.68 133.585 444.68Z" fill="#F7C894"/>
<path d="M94.2439 642.12C146.293 642.12 188.488 599.926 188.488 547.876C188.488 495.827 146.293 453.632 94.2439 453.632C42.1945 453.632 0 495.827 0 547.876C0 599.926 42.1945 642.12 94.2439 642.12Z" fill="#F7E2CD"/>
<path d="M98.8276 309.183L56.9414 300.902C56.9414 300.902 57.5872 240.149 63.7156 236.047C69.8441 231.957 113.186 269.297 113.186 269.297L98.8276 309.183Z" fill="#F7C894"/>
<path d="M179.713 325.302L221.574 333.709C221.574 333.709 244.264 277.338 240.174 271.209C236.085 265.081 181.739 282.972 181.739 282.972L179.713 325.302Z" fill="#F7C894"/>
<path d="M80.2272 332.469C82.3797 325.365 88.8754 327.885 95.9788 330.037C103.082 332.19 108.096 333.165 105.944 340.256C103.791 347.359 98.3719 341.269 91.2812 339.116C84.1777 336.964 78.0746 339.572 80.2272 332.469Z" fill="black"/>
<path d="M189.666 354.273C190.4 346.891 183.436 346.726 176.054 345.992C168.672 345.257 163.67 344.232 162.936 351.614C162.202 358.996 169.533 355.45 176.915 356.172C184.297 356.906 188.931 361.655 189.666 354.273Z" fill="black"/>
<path d="M115.082 312.865C116.326 310.289 114.112 306.646 110.138 304.728C106.164 302.81 101.934 303.343 100.691 305.919C99.4478 308.495 101.662 312.138 105.636 314.056C109.61 315.974 113.839 315.441 115.082 312.865Z" fill="#F7E2CD"/>
<path d="M171.942 327.25C176.348 327.001 179.789 324.485 179.627 321.629C179.466 318.774 175.764 316.66 171.358 316.909C166.953 317.158 163.512 319.675 163.673 322.53C163.835 325.386 167.537 327.499 171.942 327.25Z" fill="#F7E2CD"/>
<path d="M67.5902 282.998C63.3104 281.681 66.6785 254.837 70.857 252.634C75.0355 250.418 97.5867 265.233 96.0419 270.272C94.4971 275.312 71.87 284.315 67.5902 282.998Z" fill="#F7E2CD"/>
<path d="M217.345 312.83C221.802 313.247 228.981 287.176 225.968 283.53C222.954 279.883 196.44 284.922 195.946 290.164C195.439 295.407 212.888 312.399 217.345 312.83Z" fill="#F7E2CD"/>
<path d="M216.496 395.26C203.834 421.584 165.671 452.455 114.984 442.578C63.703 432.6 41.443 390.448 40.2655 363.845C39.0499 336.28 86.71 370.214 127.773 378.381C168.836 386.548 228.108 371.126 216.496 395.26Z" fill="#F7E2CD"/>
<path d="M168.165 385.637C166.063 396.222 141.195 392.221 124.734 388.941C108.261 385.662 86.6972 380.407 88.7991 369.822C90.901 359.236 117.631 345.105 134.104 348.385C150.577 351.664 170.28 375.051 168.165 385.637Z" fill="#F7E2CD"/>
<path d="M146.69 368.315C145.677 373.43 136.004 379.23 127.925 377.622C119.847 376.013 113.149 366.947 114.161 361.832C115.174 356.716 124.19 354.197 132.268 355.805C140.347 357.426 147.716 363.199 146.69 368.315Z" fill="black"/>
<path d="M129.014 372.177L126.178 386.434L124.456 388.004L111.161 391.993" stroke="black" stroke-width="8" stroke-miterlimit="10" stroke-linecap="round" stroke-linejoin="round"/>
<path d="M127.013 388.422L138.181 397.754" stroke="black" stroke-width="8" stroke-miterlimit="10" stroke-linecap="round" stroke-linejoin="round"/>
<path d="M102.538 38.8979C108.666 34.8081 152.008 72.1486 152.008 72.1486L137.662 112.022L95.7761 103.741C95.7761 103.753 96.4092 42.9878 102.538 38.8979Z" fill="#3F2920"/>
<path d="M278.997 74.0479C274.907 67.9195 220.561 85.811 220.561 85.811L218.535 128.14L260.396 136.548C260.409 136.548 283.099 80.1764 278.997 74.0479Z" fill="#3F2920"/>
<path d="M153.918 115.702C155.161 113.126 152.947 109.483 148.973 107.564C144.999 105.646 140.77 106.179 139.526 108.755C138.283 111.331 140.497 114.974 144.471 116.892C148.445 118.811 152.674 118.277 153.918 115.702Z" fill="#F7C894"/>
<path d="M210.762 130.103C215.167 129.854 218.608 127.338 218.447 124.482C218.285 121.626 214.583 119.513 210.177 119.762C205.772 120.011 202.331 122.528 202.493 125.383C202.654 128.239 206.356 130.352 210.762 130.103Z" fill="#F7C894"/>
<path d="M106.425 85.8363C102.145 84.5195 105.513 57.6758 109.692 55.4726C113.87 53.2568 136.421 68.0714 134.877 73.1109C133.332 78.1504 110.705 87.1532 106.425 85.8363Z" fill="#F7C894"/>
<path d="M256.167 115.668C260.624 116.086 267.803 90.0148 264.79 86.3681C261.776 82.7214 235.262 87.7609 234.768 93.0031C234.274 98.2452 251.71 115.25 256.167 115.668Z" fill="#F7C894"/>
<path d="M153.819 245.429C102.537 235.452 80.2775 193.299 79.0999 166.696C77.8844 139.131 125.544 173.065 166.608 181.233C207.671 189.412 266.942 173.964 255.331 198.111C242.656 224.423 204.505 255.293 153.819 245.429Z" fill="#F7C894"/>
<path d="M207 188.475C204.898 199.061 180.03 195.06 163.569 191.78C147.095 188.501 125.532 183.246 127.634 172.66C129.736 162.075 156.465 147.944 172.939 151.223C189.4 154.516 209.102 177.902 207 188.475Z" fill="#F7C894"/>
<path d="M185.525 171.153C184.512 176.269 174.838 182.068 166.76 180.46C158.681 178.852 151.983 169.786 152.996 164.671C154.009 159.555 163.025 157.035 171.103 158.643C179.181 160.264 186.538 166.038 185.525 171.153Z" fill="black"/>
<path d="M167.849 175.028L165 189.273L163.278 190.856L149.995 194.844" stroke="black" stroke-width="8" stroke-miterlimit="10" stroke-linecap="round" stroke-linejoin="round"/>
<path d="M165.835 191.274L177.003 200.593" stroke="black" stroke-width="8" stroke-miterlimit="10" stroke-linecap="round" stroke-linejoin="round"/>
<path d="M58.727 507.079L16.8408 498.798C16.8408 498.798 17.4866 438.045 23.615 433.943C29.7435 429.84 73.0858 467.193 73.0858 467.193L58.727 507.079Z" fill="#F7E2CD"/>
<path d="M139.612 523.185L181.473 531.593C181.473 531.593 204.164 475.221 200.074 469.093C195.984 462.964 141.638 480.856 141.638 480.856L139.612 523.185Z" fill="#F7E2CD"/>
<path d="M69.4684 512.186C73.6348 510.733 76.2486 507.365 75.3065 504.665C74.3643 501.964 70.2231 500.953 66.0566 502.407C61.8902 503.86 59.2764 507.228 60.2186 509.929C61.1607 512.629 65.302 513.64 69.4684 512.186Z" fill="#F7D3B0"/>
<path d="M137.522 525.295C139.427 523.161 138.303 519.049 135.012 516.11C131.72 513.17 127.508 512.517 125.602 514.651C123.697 516.784 124.821 520.896 128.112 523.835C131.404 526.775 135.616 527.428 137.522 525.295Z" fill="#F7D3B0"/>
<path d="M27.4893 480.881C23.2096 479.564 26.5777 452.72 30.7562 450.517C34.9347 448.314 57.4858 463.116 55.9411 468.156C54.3963 473.195 31.7691 482.198 27.4893 480.881Z" fill="#F7D3B0"/>
<path d="M177.244 510.713C181.701 511.131 188.88 485.059 185.867 481.413C182.853 477.766 156.339 482.806 155.845 488.048C155.339 493.29 172.787 510.295 177.244 510.713Z" fill="#F7D3B0"/>
<path d="M176.396 593.156C163.734 619.48 125.57 650.35 74.8836 640.474C23.6022 630.496 1.3422 588.344 0.164627 561.741C-1.05093 534.176 46.6092 568.11 87.6723 576.277C128.736 584.444 188.007 569.022 176.396 593.156Z" fill="#F7D3B0"/>
<path d="M128.064 583.52C125.962 594.105 101.094 590.104 84.6333 586.825C68.1599 583.545 46.5964 578.29 48.6983 567.705C50.8002 557.119 77.5299 542.989 94.0033 546.268C110.477 549.56 130.179 572.947 128.064 583.52Z" fill="#F7D3B0"/>
<path d="M106.589 566.198C105.576 571.314 95.9025 577.113 87.8241 575.505C79.7457 573.897 73.0474 564.831 74.0604 559.715C75.0734 554.6 84.0888 552.08 92.1672 553.688C100.246 555.309 107.615 561.083 106.589 566.198Z" fill="black"/>
<path d="M88.9134 570.073L86.0771 584.318L84.355 585.9L71.0598 589.889" stroke="black" stroke-width="8" stroke-miterlimit="10" stroke-linecap="round" stroke-linejoin="round"/>
<path d="M86.9126 586.318L98.0806 595.637" stroke="black" stroke-width="8" stroke-miterlimit="10" stroke-linecap="round" stroke-linejoin="round"/>
<path d="M140.498 139.243C141.843 132.495 139.408 126.322 135.06 125.456C130.712 124.589 126.097 129.358 124.753 136.106C123.408 142.854 125.843 149.027 130.191 149.894C134.539 150.76 139.154 145.992 140.498 139.243Z" fill="black"/>
<path d="M223.87 155.853C225.214 149.105 222.779 142.932 218.431 142.066C214.083 141.199 209.469 145.968 208.124 152.716C206.779 159.464 209.214 165.637 213.562 166.504C217.91 167.37 222.525 162.602 223.87 155.853Z" fill="black"/>
<path d="M60.5885 534.442C61.9331 527.694 59.4982 521.521 55.1502 520.655C50.8022 519.788 46.1874 524.557 44.8428 531.305C43.4982 538.054 45.933 544.227 50.281 545.093C54.6291 545.959 59.2439 541.191 60.5885 534.442Z" fill="black"/>
<path d="M143.972 551.055C145.317 544.307 142.882 538.134 138.534 537.267C134.186 536.401 129.571 541.169 128.227 547.918C126.882 554.666 129.317 560.839 133.665 561.705C138.013 562.572 142.628 557.803 143.972 551.055Z" fill="black"/>
</svg>
