<svg width="446" height="405" viewBox="0 0 446 405" fill="none" xmlns="http://www.w3.org/2000/svg">
<g clip-path="url(#clip0)">
<path d="M7.74535 168.311C28.7375 98.7694 101.833 22.4545 188.779 22.4545C292.1 22.4545 374.386 128.795 374.386 204.873C374.386 280.95 292.1 305.433 188.779 305.433C85.4574 305.433 1.68286 282.46 1.68286 206.361C1.68286 194.303 3.79718 181.426 7.74535 168.311Z" fill="#3F2920"/>
<path d="M111.325 123.014L31.1106 123.122C31.1106 123.122 9.98895 10.9791 19.7839 1.18632C29.5788 -8.60651 123.127 44.2834 123.127 44.2834L111.325 123.014Z" fill="#3F2920"/>
<path d="M266.232 123.014L346.446 123.122C346.446 123.122 367.568 10.9791 357.773 1.18632C347.978 -8.60651 254.43 44.2834 254.43 44.2834L266.232 123.014Z" fill="#3F2920"/>
<path d="M374.256 189.321C369.402 129.442 321.334 166.219 250.957 189.127C237.775 170.037 210.548 156.793 188.088 156.793C164.421 156.793 135.468 171.504 123.213 192.254C63.1924 171.223 14.563 130.952 3.2579 183.842C0.388462 197.237 -0.647123 214.709 0.366887 226.723C5.73899 290.657 86.5793 309.035 199.199 308.107C303.038 307.266 381.872 283.258 374.256 189.321Z" fill="#F7C894"/>
<path d="M220.493 192.793C220.493 202.91 204.291 217.599 188.325 217.599C172.36 217.599 156.157 202.91 156.157 192.793C156.157 182.677 172.36 174.48 188.325 174.48C204.312 174.48 220.493 182.677 220.493 192.793Z" fill="black"/>
<path d="M136.378 118.141C139.867 113.837 137.3 105.976 130.644 100.582C123.988 95.1887 115.764 94.3051 112.276 98.6087C108.787 102.912 111.354 110.773 118.01 116.167C124.666 121.561 132.889 122.444 136.378 118.141Z" fill="#F7C894"/>
<path d="M256.721 116.207C263.402 110.846 266.006 102.997 262.537 98.6774C259.069 94.3577 250.842 95.2026 244.161 100.564C237.48 105.926 234.876 113.775 238.345 118.095C241.813 122.414 250.041 121.569 256.721 116.207Z" fill="#F7C894"/>
<path d="M44.1635 86.2372C35.7925 85.3744 32.1464 34.7063 39.0287 29.098C45.911 23.4898 92.9007 42.4931 91.9083 52.329C90.8727 62.1866 52.5129 87.1 44.1635 86.2372Z" fill="#F7C894"/>
<path d="M330.977 86.2372C339.348 85.3744 342.994 34.7063 336.112 29.098C329.23 23.4898 282.24 42.4931 283.232 52.329C284.246 62.1866 322.606 87.1 330.977 86.2372Z" fill="#F7C894"/>
<path d="M188.326 206.857V235.028" stroke="black" stroke-width="8" stroke-miterlimit="10" stroke-linecap="round" stroke-linejoin="round"/>
<path d="M241.615 142.923C241.615 149.157 248.109 164.041 255.639 163.911C263.168 163.782 269.144 132.591 268.95 120.879C268.95 120.857 241.615 136.69 241.615 142.923Z" fill="black"/>
<path d="M134.238 140.766C134.238 147 127.744 164.041 120.214 163.911C112.663 163.782 106.708 132.591 106.903 120.879C106.903 120.857 134.238 134.533 134.238 140.766Z" fill="black"/>
<path d="M88.8662 25.2585C88.8662 25.2585 96.6763 43.5715 75.2095 43.5715" stroke="#FF0000" stroke-width="6" stroke-miterlimit="10"/>
<path d="M110.419 25.2585C110.419 25.2585 102.609 43.5715 124.076 43.5715" stroke="#FF0000" stroke-width="6" stroke-miterlimit="10"/>
<path d="M88.8662 80.6721C88.8662 80.6721 96.6763 62.3591 75.2095 62.3591" stroke="#FF0000" stroke-width="6" stroke-miterlimit="10"/>
<path d="M110.419 80.6721C110.419 80.6721 102.609 62.3591 124.076 62.3591" stroke="#FF0000" stroke-width="6" stroke-miterlimit="10"/>
<path d="M153.008 262.788C138.315 262.788 169.297 226.4 189.404 226.4C209.512 226.4 241.248 262.788 225.801 262.788C210.353 262.788 167.7 262.788 153.008 262.788Z" fill="black"/>
</g>
<defs>
<clipPath id="clip0">
<rect width="445.345" height="405" fill="white"/>
</clipPath>
</defs>
</svg>
